# xmcd
#
# Track frame offsets:
#	150
#	15462
#	29560
#	40580
#	54390
#	68037
#	82667
#	96532
#	109885
#	121962
#	136497
#	150017
#	164300
#	176612
#	192162
#	205402
#	220437
#	234392
#	247287
#	260247
#	274517
#
# Disc length: 3885 seconds
#
# Revision: 1
# Processed by: cddbd v1.5.2PL0 Copyright (c) Steve Scherf et al.
# Submitted via: EZCDAudioConverter 3.1.5.1
#
DISCID=260f2b15
DTITLE=Γιώργος Ζαμπέτας - Ο Πιο Καλός Ο Μαθήτης_CD 2
DYEAR=1900
DGENRE=laiko
TTITLE0=Μαρινέλλα	 - Σταλιά-Σταλιά
TTITLE1=Πάνος Τζανετής	 - Θα Τραγουδήσω Για Σένα
TTITLE2=Χάρις Αλεξίου - Τι Γλυκό Να Σ' Αγαπούν
TTITLE3=Δημήτρης Μητροπάνος - 	Μεταξουργείο
TTITLE4=Τόλης Βοσκόπουλος - 	Η Βαλίτσα
TTITLE5=Βίκυ Μοσχολιού	 - Που Ήσουν Και Χάθηκες
TTITLE6=Γιώργος Ζαμπέτας	 - Πατέρα Κάτσε Φρόνιμα
TTITLE7=Βίκυ Μοσχολιού	 - Αλήτη
TTITLE8=Δούκισσα - 	Που Πας Χωρίς Αγάπη
TTITLE9=Σταμάτης Κόκοτας	 - Έρχομαι-Έρχομαι
TTITLE10=Γρηγόρης Μπιθικώτσης	 - Κυρ' Αλέκο
TTITLE11=Μπέμπα Μπλανς	 - Το Καράβι
TTITLE12=Ελένη Ροδά	 - Το Ανθρωπάκι
TTITLE13=Μανώλης Καναρίδης	 - Όταν Θα Λάβεις Αυτό Το Γράμμα
TTITLE14=Γιώργος Ζαμπέτας	 - Χίλια Περιστέρια
TTITLE15=Βίκυ Μοσχολιού	 - Τα Δάκρυα
TTITLE16=Μαρινέλλα	 - Τι Να Φταίει
TTITLE17=Τόλης Βοσκόπουλος - 	Έχασες Τα Τρένο
TTITLE18=Μαίρη Λίντα	 - Άκου Τ' Αηδόνια
TTITLE19=Γιώργος Ζαμπέτας	 - Ο Αράπης
TTITLE20=Πρόδρομος Τσαουσάκης	 - Σαν Σήμερα-Σαν Σήμερα
EXTD=
EXTT0=
EXTT1=
EXTT2=
EXTT3=
EXTT4=
EXTT5=
EXTT6=
EXTT7=
EXTT8=
EXTT9=
EXTT10=
EXTT11=
EXTT12=
EXTT13=
EXTT14=
EXTT15=
EXTT16=
EXTT17=
EXTT18=
EXTT19=
EXTT20=
PLAYORDER=
